<?xml version="1.0" encoding="UTF-8"?>
<svg version="1.1" viewBox="0 0 1600 1500" width="481" height="451" xmlns="http://www.w3.org/2000/svg">
<path transform="translate(0)" d="m0 0h1600v1500h-1600z" fill="#FCFCFC"/>
<path transform="translate(451,238)" d="m0 0h44l29 4 19 4 26 7 27 10 29 14 22 12 22 14 19 14 10 8 20 18 8 7 7 8 11 12 8 10 12 17 8 15 2 5 12-16 13-16 13-15 22-22 11-9 5-2 2-4 4-3h3l1-3h3l1-3 3-2h3v-2l9-6h3v-2h3v-2l5-3h3v-2l8-5h4v-2l16-8 11-5 12-5 36-13 6-2h4v-2l35-11 29-7 30-5 19-2h47l25 3 25 5 24 7 27 10 30 15 23 15 14 10 16 13 17 16 21 21 9 11 13 16 11 15 12 18 10 17 11 24 9 27 5 22 4 27v43l-3 28-6 30-8 31-11 32-12 29-13 28-13 26-13 23-12 19-15 24-11 17-10 15-13 18-9 12-10 13-16 21-8 10-10 13-11 14-11 13-12 14-11 12-9 11-10 11-9 11-13 13-7 8-17 17-9 10-1 2h-2l-2 4-15 14-13 13-7 8-41 41-8 7-9 9-8 7-11 11-8 7-8 8-8 7-12 11-8 7-11 10-8 7-15 13-11 9-10 9-10 8-14 12-14 11-16 13-10 8-18 14-17 13-11 8-12 9-5-1-13-11-10-9-15-15-7-8-8-9-10-15-8-14-12-28-7-22-6-27-5-32-1-11-1-23v-92l8-1 152-1 14-3 11-4 11-7 10-9 7-10 6-14 3-11v-200l-210-1-12-1-1-221h-204l-16 4-13 7-11 10-9 14-4 12-1 6-1 30-1 138-1 1h-69l-22-2-26-4-20-5-7-2-9-3v-2l-5-1-11-4v-2l-6-1-12-7v-2h-3v-2l-4-1v-2l-4-1v-2l-5-2-7-8-5-5-4-5v-2h-2l-1-5h-2l-6-12-5-13-4-8-5-14-4-9-3-10-4-10-4-14-3-8-6-25-4-20-2-20-1-4-1-16v-21l2-27 4-23 6-23 3-7 4-12 7-15 6-12h2l1-5 2-4h2v-3h2v-3h2v-3h2l1-4 6-9h2l1-4h2v-3h2l1-4h2l1-4 2-1 2-4h2l1-4 2-1 3-5h2l2-5 7-8 3-2 3-5 15-14 13-14h3l2-4 16-13 18-13 18-11 23-12 21-9 26-8 29-6z" fill="#84E5B8"/>
<path transform="translate(1103,238)" d="m0 0h47l25 3 25 5 24 7 27 10 30 15 23 15 14 10 16 13 17 16 21 21 9 11 13 16 11 15 12 18 10 17 11 24 9 27 2 7 5 35v16l-4-1-2-6-1-10-2-2-5-2-5 16-1 5-7 5-4 6v6h-9l-9-2-5-2h-6l-1-3-7 2-11-2-9-6-7-5-14-7-15-7-20-9-24-9-15-5-23-6-8 1 3 3 4 2 1 5-1 2-8 2v2h-3l-1 3-7 2-2 1v2l-9 4h-7l1 2-9 4-8 5-6 2-11 4-3 3h-6l-2 4-8 2-9 6h-5v4l-6 1v2l-4 1v2h-5v2l-5 1v-2h-4l-4 4-10 5h-3v2l-14 3-1 2-7 3-9 4-1 2-3 1-2 3-5 1-1 3h-2l-1 5-7 2-1-1-1 2h-2l-1 4-1 2h-2l-3 6-9 2-4 2-8 5-13 4-9 3h-2l-2 4-7 1-2 5-8 1-3 5-7 2-14 5-8 5-8 2-5 5-3 2-11 2-4 1-1 4-5 3-3 3-5 1v2h-2v2l-10-1-1 2h-2l-1 3-5 2v2l-10 3-1 5h-3l-1 3h-2l-1 3-7 2-1 2h-2l-1 3-9 2v2h-2v-2h-2v2l-9 3-12 3-4 2h-5v-2l-13 2h-4v2l-6 4h-2v2l-7 1-4 5-5 1-3 1-5-1-3 4h-2l-2 5-3 3-4 8 1 9-4 3-1 5h-2v7l-4 4-1 3-3 2 1 4v2l6 1 20 3 18 1 1 1h25l11 1 2-1 8 2 8 1 1-2 1 1 11 1v1h-142v-227l6-25 3-8 3-12 9-25 5-12 13-28 12-23 12-20 10-16 3-2 3-7 9-11 11-14 9-10 7-8 20-20 11-9 5-2 2-4 4-3h3l1-3h3l1-3 3-2h3v-2l9-6h3v-2h3v-2l5-3h3v-2l8-5h4v-2l16-8 11-5 12-5 36-13 6-2h4v-2l35-11 29-7 30-5z" fill="#5AC5B2"/>
<path transform="translate(922,818)" d="m0 0 23 1 20 3 23 6 30 10 11 5 23 12 18 12 14 11 12 11v2h2l9 11 8 10 11 17 8 15 6 15 5 14 2 9 1 1 2 12 3 13 3 28 1 21v14l-1 13-8 7-5 7h-2l-2 4-15 14-13 13-7 8-41 41-8 7-9 9-8 7-11 11-8 7-8 8-8 7-12 11-8 7-11 10-8 7-15 13-11 9-10 9-10 8-14 12-14 11-16 13-10 8-18 14-17 13-11 8-12 9-5-1-13-11-10-9-15-15-7-8-8-9-10-15-8-14-12-28-7-22-6-27-5-32-1-11-1-23v-92l8-1 152-1 14-3 11-4 11-7 10-9 7-10 6-14 3-11 1-28z" fill="#33A3B2"/>
<path transform="translate(1103,238)" d="m0 0h47l25 3 25 5 24 7 27 10 30 15 23 15 14 10 10 8v3l3 1v2l4 2 16 15-3 1-4-1v-2l-3-1-3-3v-2l-5-1-5-5-8-5v-2h-2l-1 2-3-1v-2h-6l-5-2-1 2h-2v2h-2l-2 8 1 2-3 1v-2l-9 4-5 1v2l-10 8-7 6-8 4-7 2-5 1v2l-7 4-8-1-4 1v2h-3l-1 3-5 2-3 3-11 3-2 3-15 6-7 1-9 5v2l4 1-2 2-6 1h-11v8l-6 3-3 3-6 4-7-1v-2h-3v2l-9 2 1 6-7 1-1 2-4 1-3 3-3 1v3h-2v2l-5 1-3 1-2 4-6 4-22 11-4 6-5 1v2h-2v2l-6 3-10 1-1 3-7 1v3l-3 2-9 1-2-1-1 4h-7l-5 5-7 4-4 4h-2v2h-2v2l-8 8h-2v2l-7 2-2 5-5 2-2-1 1-8-8 1 2 7-12 2-5 4-4 1-2 3h-2l-1 2-2-2-4-1v3l-8 1 1 5-9 3v6l-4 4-6-2h-2l-1 3h-2l-1 3-2 2 1 3-6 2-4 2-6-1-1 6-5 1-1-1-7 1-9 3-1 2-9 3-4 2-1-2h-6l-7 2-1 1 5 2v3h-3v2l-8 1-5 2-3 3h-2l-1 2-2-1 1 3-10 2-5 4-7-1-5 4-7 2-1 3-3 2-6 2-5 6-3 3-5-1-2 5-4 3h-2v3l-7 2 1 4-5 6-5 1-9-1-2 10-2 14-2 11v12l-3 21-2 9-1 12h-1l-1-68v-72l6-25 3-8 3-12 9-25 5-12 13-28 12-23 12-20 10-16 3-2 3-7 9-11 11-14 9-10 7-8 20-20 11-9 5-2 2-4 4-3h3l1-3h3l1-3 3-2h3v-2l9-6h3v-2h3v-2l5-3h3v-2l8-5h4v-2l16-8 11-5 12-5 36-13 6-2h4v-2l35-11 29-7 30-5z" fill="#33A3B2"/>
<path transform="translate(342,272)" d="m0 0h4l-2 5-6 4h-2v2l-7 3-1 3-3 2h-3l-1 4h-2l-2 4-7 8-2 5 1 8h2l1 8h2l4 8v8l4 7 1 3v12l1 14-2 5-3 2 1 7 4 6 2 5 3 4 3 7 4 8v2h2l4 9 7 14v2h2l7 12 14 20 10 14 12 13 11 11 7 5v2l3 1v2l4 2 15 14 12 11 3 2v2l4 2 9 7v2h2l3 7-1 11 9 3 9 1-1 3-12 5-11 7-7 7-9 14-4 12-1 6-1 30-1 138-1 1h-69l-22-2-26-4-20-5-7-2-9-3v-2l-5-1-11-4v-2l-6-1-12-7v-2h-3v-2l-4-1v-2l-4-1v-2l-5-2-7-8-5-5-4-5v-2h-2l-1-5h-2l-6-12-5-13-4-8-5-14-4-9-3-10-4-10-4-14-3-8-6-25-4-20-2-20-1-4-1-16v-21l2-27 4-23 6-23 3-7 4-12 7-15 6-12h2l1-5 2-4h2v-3h2v-3h2v-3h2l1-4 6-9h2l1-4h2v-3h2l1-4h2l1-4 2-1 2-4h2l1-4 2-1 3-5h2l2-5 7-8 3-2 3-5 15-14 13-14h3l2-4 16-13 18-13 18-11z" fill="#1A85AE"/>
<path transform="translate(451,238)" d="m0 0h44l29 4 19 4v2l11 2 16 5v4l-14-1-5-1v8l-3 6 1 5-1 8-1 11 1 15h-2l2 13-1 9v12l-1 8v8l1 5-1 5 1 2v19l-1 2h-2v19l-1 10 1 23 2 12 1 11 1 2v8l-3 3v2l4 2v5l-4 4v7l-1 9 2 1-3 5v13l2 3v10l-1 7v6 2l3 5 3 12-1 6 2 2 6 2 8 3 5 1v2h5v1l5 1v1l-24 1h-63v2l-10 1-2-2h-7l-8-3-1-3 1-9-2-7h-2l-5-5-8-6v-2l-4-2-7-7-8-7-13-12-5-4-5-5-8-7-14-14-10-13-9-13-8-12-7-11v-2h-2l-5-9-3-7-3-6v-3h-2l-7-13-3-7-1-3-2-1-2-6-3-5v-7l4-1 1-6-1-17v-8l-4-5-1-6-1-8-2-5h-2l-1-8h-2l-2-4v-6l6-8 6-7h2l1-4 6-2 1-4 4-2h3v-2l5-3 4-4 1-2-2-1 22-11 24-9 25-7 28-5z" fill="#5BBCB9"/>
<path transform="translate(876,1073)" d="m0 0 3 1-17 5-57 2 9 4h6v1l10 1 3 3 3 6-2 4-1 4h2l3 6 10 9 7 6 1 4h2v2l5 2 5 8 5 4 11 6 14 13 2 4 2 1 1-2 11 9 5 3 2 7v13l-5 33v10l5 11 2 5v3l7 1h4l2 3 13 1-2 4-4 5-8 11-6 6h-2l-2 4-5 2v2l-16 14-5 6 11-8 4-2-4 5-14 11-13 11-9 7-10 8-18 14-17 13-11 8-12 9-5-1-13-11-10-9-15-15-7-8-8-9-10-15-8-14-12-28-7-22-6-27-5-32-1-11-1-23v-92l8-1 152-1 14-3z" fill="#84E5B7"/>
<path transform="translate(1228,267)" d="m0 0 4 2v-2l9 2 7 2 13 5 15 8 7 2 5 3 7 3 6 4 4 1 2-2 16 12 5 4v3l3 1v2l4 2 16 15-3 1-4-1v-2l-3-1-3-3v-2l-5-1-5-5-8-5v-2h-2l-1 2-3-1v-2h-6l-5-2-1 2h-2v2h-2l-2 8 1 2-3 1v-2l-9 4-5 1v2l-10 8-7 6-8 4-7 2-5 1v2l-7 4-8-1-4 1v2h-3l-1 3-5 2-3 3-11 3-2 3-15 6-7 1-9 5v2l4 1-2 2-6 1h-11v8l-6 3-3 3-6 4-7-1v-2h-3v2l-9 2 1 6-7 1-1 2-4 1-3 3-3 1v3h-2v2l-5 1-3 1-2 4-6 4-22 11-4 6-5 1v2h-2v2l-6 3-10 1-1 3-7 1v3l-3 2-9 1-2-1-1 4h-7l-5 5-7 4-4 4h-2v2h-2v2l-8 8h-2v2l-7 2-2 5-5 2-2-1 1-8-8 1 2 7-12 2-5 4-4 1-2 3h-2l-1 2-2-2-4-1v3l-8 1 1 5-9 3v6l-4 4-6-2h-2l-1 3h-2l-1 3-2 2 1 3-6 2-4 2-6-1-1 6-5 1-1-1-7 1-9 3-1 2-9 3-4 2-1-2h-6l-7 2-1 1 5 2v3h-3v2l-8 1-5 2-3 3h-2l-1 2-2-1 1 3-10 2-5 4-7-1-5 4-7 2-1 3-3 2-6 2-5 6-3 3-5-1-2 5-4 3h-2v3l-7 2 1 4-5 6-5 1-9-1-2 10-2 14-2 11v12l-3 21-2 9-1 12h-1l-1-68v-72l6-25 2-7 1 4v2h2l1-2 2-3 6-11 3-1 2-5 9-6 10-3 9-4 3-6 12-4 10-4 3-2h6v-2l13-5 5-3 13-5 10-4 3-3 7-1 6-5 11-6 4-3 5-3 3-2 6-2 17-9 10-3 5-4 10-4 10-6 10-8 16-10 7-1 1 4 4-4v-3l13-3 1-2h-2l-1-4 3-1 1 3h5v-5l5-3 1 3h2l2-7 14-8 2 3 2-4h4v-3l9-3 7-2 2-4 10-5 5-3 5-2 8-7 9-3v-2l14-5 5-4 11-6 3-4h2v-2h3v-2l7-2 7-1h2l2-5 7-3h3v-2l8-2 2-4 3-3 11 2 4-8 5-1 12-5h3l1-6h3v-2l6-1 1-2 3-3 12-4 8-4 2-4 5 1z" fill="#3FB0AF"/>
<path transform="translate(922,818)" d="m0 0 23 1 20 3 23 6 30 10 11 5 23 12 18 12 14 11 12 11v2h2l9 11 8 10 11 17 8 15 6 15 5 14 2 9 1 1 2 12 3 13 3 28 1 21v14l-1 13-8 7-5 7h-2l-2 4-15 14-14 14-3-1 4-5h2l2-7 2-4 1-4h2v-9l-10-1-6-3v-2h-2l-5-9-4-3-1 2h-2l-7-8-8-6-3-2v-3h-2l-5-5-12-9-3-4-4-1-2-5-4-2-13-7-4-6-4-5-5-2-8-11-10-8-11-6-11-4-11-8-7-6v-4l-7 1-2-5-3-1-2-5h-8l-4 7-1 7h-2v6l-2 5-1 7h-1l-1-24z" fill="#1A85AE"/>
<path transform="translate(342,272)" d="m0 0h4l-2 5-6 4h-2v2l-7 3-1 3-3 2h-3l-1 4h-2l-2 4-7 8-2 5 1 8h2l1 8h2l4 8v8l4 7 1 3v12l1 14-2 5-3 2 1 7 4 6 2 5 3 4 3 7 4 8v2h2l4 9 7 14v2h2l7 12 14 20 10 14 12 13 11 11 7 5v2l3 1v2l4 2 15 14 12 11 3 2v2l4 2 9 7v2h2l3 7-1 11 9 3 9 1-1 3-12 5-11 7-7 7-9 14-4 12-1 6-1 30-1 138-1 1h-69l-22-2v-1l35 1-2-2-12-2-8-3-9-4v-2h2l1-6-1-2 2-10v-9l3-1-1-5-2-6-4-3v-3l-3-3-1-9 2-4h-2l-1-6 4-15 2-14 1-11 2-9-1-11 1-3-1-11-1-4 1-10v-8l1-9-1-31-1-7v-21l-1-11 1-3 1-8-1-6 1-12v-14l-1-5h2l1-13v-7l4-13 1-5-3-5-3-8-4-7-6-9-6-11-10-17-15-35-11-33-6-21-5-13 1-6-2-1 12-10 18-13 18-11z" fill="#34A3B2"/>
<path transform="translate(451,238)" d="m0 0h44l29 4 19 4v2l11 2 16 5v4l-14-1-5-1v8l-3 6 1 5-1 8-1 11 1 15h-2l2 13-1 9v12l-1 8v8l1 5-1 5 1 2v19l-1 2h-2v19l-1 10 1 23 2 12 1 11 1 2v8l-3 3v2l4 2v5l-4 4v7l-1 9 2 1-3 5v13l2 3v10l-1 7v6 2l3 5 3 12-1 6 2 2 6 2 8 3 5 1v2h5v1l5 1v1l-24 1h-63v2l-10 1-2-2h-7l-8-3-1-3 1-9-2-7 6 4 4 4v2h7l9 6 11 2-6-4-7-3-2-1v-2h-2l-3-5v-6l-5-1-1-3-5-3-3-6v-4h-2l1-7-1-5 2-5 1-5-2-1 1-7-2-5 4-11v-16l-1-18-1-2 1-4-1-4 1-10-5-8v-6h4v-8l-3 1-1-6 2-7v-14l-1-6v-5l3-3-4-5 1-7 4-10v-11l-2-7v-8l2-9 1-5 5-1 1 1-1-12 1-2 1-15 2-17 3-7 1-5h5l-1-7-3-1v-5h2l1 2 3 1 1-11-5 1-1-4-12-3v-1h8l7-1 4-2h-48v-1z" fill="#5AC5B2"/>
<path transform="translate(917,1030)" d="m0 0 2 3 3-2 3 5 4 40 3 16 6 7 17 9 8 6 7 5 4 5 5 4 8 3 3 6 7 3v2l6 2 3 3v2l3 1 3 5 7 2 4 5 3 5 5 3 3 3 7-1 5 2v2l5 1-1 2h-2l-1 5-9 11-5 6h-2l-1 4h-2v6l-10 9-7 7-8 7-12 11-8 7-11 10-8 7-15 13-11 9-10 9-10 8-2 2-5 2-10 8h-2l1-3 5-5 12-11 3-1v-2l6-4 5-5 7-8v-2l4-4 2-3h2l3-6h-13l-2-4-7 1-4-2-5-13-3-6v-10l5-33v-13l-3-8-6-3-8-7h-4l-4-6-11-10-12-7-7-6-3-6-4-2v-2h-2l-4-6-13-11-4-5v-3h-2l-1-5h2l1-4-3-5v-2l-13-1-1-1-6-1-7-3-1-2 58-2 17-4v-2l11-6 10-8 7-8 7-12z" fill="#5AC5B2"/>
<path transform="translate(402,249)" d="m0 0 1 3v2l-11 6-5 5-3 4v6l1 5v5h4l-1 9 3 10v12l-1 7h3l1 8-3 1v2h-2l1 10 3 3-1 3 1 6v7l3 10 1 9-1 18-2 6-1 10-1 2 3 1-1 11-2 10v9l-3 14 2 6-1 3 4 6-1 6 2 5-1 12 7 10 4 4 3 6v3l-10-9-13-13-10-13-9-13-8-12-7-11v-2h-2l-5-9-3-7-3-6v-3h-2l-7-13-3-7-1-3-2-1-2-6-3-5v-7l4-1 1-6-1-17v-8l-4-5-1-6-1-8-2-5h-2l-1-8h-2l-2-4v-6l6-8 6-7h2l1-4 6-2 1-4 4-2h3v-2l5-3 4-4 1-2-2-1 22-11 24-9z" fill="#4CACBD"/>
<path transform="translate(483,258)" d="m0 0h2l1 2 8 1 1 1 1 15-1 11 4 9v10l-3 3 3 1-1 17-2 15-1 20 3 7-1 4-2 12v31l-1 6 1 1v8l1 1 1 25 2 12 1 4-1 7 1 3v14l-2 7 1 8-1 1v8h-2l1 6h2l1 13v25l-2 12v5l5 2 1 3h3v3l-7-1-5-3-7-3-2-1v-2h-2l-3-5v-6l-5-1-1-3-5-3-3-6v-4h-2l1-7-1-5 2-5 1-5-2-1 1-7-2-5 4-11v-16l-1-18-1-2 1-4-1-4 1-10-5-8v-6h4v-8l-3 1-1-6 2-7v-14l-1-6v-5l3-3-4-5 1-7 4-10v-11l-2-7v-8l2-9 1-5 5-1 1 1-1-12 1-2 1-15 2-17 3-7 1-5h5l-1-7-3-1z" fill="#63C4B9"/>
<path transform="translate(411,245)" d="m0 0h13l-1 4-6 3h-2l-1 4-3 1 2 10 5 1-1 5h-2l1 11h2l1 5 3 4h3l1 4-2 4h-4l-2 7h2l-1 15v12 3l-1 7v7l4 1v5l2 1-1 6 1 6v8l-1 8-1 1v10l-2 6v20l-1 7 1 25 3 17-3 8h3v2h2l1 11-3 1v4l4 1v20l-4 9v6l-4-3-4-1-9-11-2-5-1-3-4-2-6-9 1-13-2-5 1-5-4-6 1-5-2-5 3-13v-9l2-10v-7h2l-1-4-2-1 1-12 2-6 1-19-2-10-2-8v-11l-1-3 1-3-3-2v-10h2v-2l2-2v-7h-3l-1-4 1-6v-9l-3-10 1-8-3-1-1-8-1-2v-7l7-8 10-6h3l-1-4h-6l4-2z" fill="#56B6BB"/>
<path transform="translate(920,1019)" d="m0 0h1l1 8 2 2v3l4 1v2l5 5 8 7v2l6 2 6 6h7l3 2 1 5 6-1 9 11 10 8 5 3v2h2l13 13 6 4 1 4 6 1 5 4 3 2v2l5 1 4 4v2l3 1v2h2l3 4v2l4 1 4 10 5 3h9v2l4 1 1 4h-2l-1 4-2 5h-2l-2 4-2 3h-2l-2 6-4 5-1 5-8 8-8 7-9 9-2-3 3-3 1-3 4-4h2l2-5 7-8 2-5 2-2-4-1v-2l-6-1-6 1-6-5-5-4-3-6-2-2-7-2-3-5-3-3v-2l-6-2-3-3-7-3-3-6-8-3-8-7-4-4-8-6-11-6-10-6-4-3-2-4-3-16-4-40-2-4-3 2-1-1 1-10z" fill="#3FB0AF"/>
<path transform="translate(1103,238)" d="m0 0h47l25 3 5 1v2l11 1 2 2-11-1h-14l-9-3h-54l-8 2-12 2-12 1-6 2-9 2-1 1-16 3-19 5-7 1-5 3-12 3-10 5-10 2-9 5-9 2-11 5-12 5-7 3h-2v2l-8 2-1 2-26 13-12 5-5 7-6 3-8 1v2l-8 7-2 3-4 2-6 4-7 6-5 6h-3v2l-7 6-3 5-2 4-5 4-1 4-4 4h-2v2h-2v2l-3 3h-2l-2 4-3 5-4 4-6 8-4 3h-2l2-7 13-17 9-11 13-15 22-22 11-9 5-2 2-4 4-3h3l1-3h3l1-3 3-2h3v-2l9-6h3v-2h3v-2l5-3h3v-2l8-5h4v-2l16-8 11-5 12-5 36-13 6-2h4v-2l35-11 29-7 30-5z" fill="#2993B0"/>
<path transform="translate(418,533)" d="m0 0 8 6 10 10 8 7 5 4v2l4 2 9 7v2h2l3 7-1 11 9 3 9 1-1 3-12 5-8 4v-2l-9 3-4 4h-2l-2 4-3 1v2h-2v2h-2l-2 4-1 4h-3v2l-2 1-3 8-1-4 1-32-1-3h-2v-7l-3-7 1-12 1-5v-7l3-11 1-4-6-9-4-4z" fill="#3FB0AF"/>
<path transform="translate(917,1030)" d="m0 0 2 3 3-2 3 5 3 32v62l-1 11-2-1-1-14-3-9-7-9-9-1-3-4v-5h-6l-5-9v-3l-7-1-4-4-9-2 2-4 6-1v-2l11-6 10-8 7-8 7-12z" fill="#64C5B8"/>
<path transform="translate(917,1030)" d="m0 0 2 3 3-2 3 5 3 32v59h-1l-1-31-1-10h-2l-8-10-1-5-5 2-1-3-4 1h-3l-9 3h-7l-1-3 7-6 9-7 7-8 7-12z" fill="#5CBDB9"/>
<path transform="translate(451,238)" d="m0 0h44l29 4 19 4-4 1-16-3-5 1-6 2-6 1h-5l-6 2-10 1-1-4-12-3v-1h8l7-1 4-2h-48v-1z" fill="#6ECFB8"/>
<path transform="translate(701,592)" d="m0 0 4 5 1 2v8l-1 8 1 6-1 11-1 8h-1l-1 6v3 20l-1 12h-1l-1-20v-66z" fill="#34A4B1"/>
<path transform="translate(818,368)" d="m0 0 1 3-3 3-1 3-5 4-1 4-4 4h-2v2h-2v2l-3 3h-2l-2 4-3 5-4 4-6 8-4 3h-2l2-7 13-17 9-11 5-3z" fill="#2790AF"/>
<path transform="translate(1052,1183)" d="m0 0 3 1-6 7-13 12-7 7-2-3 3-3 1-3 4-4h2l2-5 6-3 4-5z" fill="#46B2B2"/>
<path transform="translate(924,581)" d="m0 0 2 1-3 5-9 6-5 5-7 3-3-1 13-10z" fill="#64C5B9"/>
<path transform="translate(1041,1194)" d="m0 0h2l-2 4-12 12-2-3 3-3 1-3 7-6 3 1z" fill="#4FBAB3"/>
<path transform="translate(411,245)" d="m0 0 4 1-2 1-2 4-5 2-4-1v-2h-6l4-2z" fill="#65C7B9"/>
<path transform="translate(918,1035)" d="m0 0 4 1v3h-4l-1 5h-2l-1 5-2-4 1-5 1-2h2v-2z" fill="#5ABBBB"/>
<path transform="translate(1328,312)" d="m0 0 5 3 7 7 8 7 4 5-4-2-15-14-5-4z" fill="#71D4B7"/>
<path transform="translate(700,584)" d="m0 0h4l-1 8-4 3z" fill="#3FACB3"/>
<path transform="translate(407,518)" d="m0 0 4 2 6 11h-2l-9-11z" fill="#5BBCBA"/>
<path transform="translate(1301,315)" d="m0 0 5 1 1 5-6 1-1-2z" fill="#3FB0AF"/>
<path transform="translate(417,531)" d="m0 0 8 4 7 8h-3l-12-11z" fill="#59BABA"/>
<path transform="translate(485,278)" d="m0 0 1 3-2 5-1 6-2 1v-11z" fill="#5BBCBA"/>
<path transform="translate(500,240)" d="m0 0 11 1 2 2-5 1-7-2z" fill="#5BC5B2"/>
</svg>
